<svg width="165" height="21" viewBox="0 0 165 21" fill="none" xmlns="http://www.w3.org/2000/svg">
<path d="M22.3516 0.233969H15.5183V11.1266C15.5183 11.2699 15.5183 11.6237 15.1968 11.6237C14.9628 11.6237 14.7724 11.3392 14.6408 11.1266L8.92331 1.90135C7.77441 0.0466245 5.6757 0 4.59345 0C2.22375 0 0 0.965058 0 3.62754V20.713H6.39764V9.87878C6.39764 9.29366 6.7196 9.29365 6.80718 9.29365C7.01239 9.29365 7.225 9.58425 7.36311 9.7912L13.4579 18.9284C14.6822 20.7631 16.3544 20.947 17.905 20.947C22.2057 20.947 22.3516 18.0213 22.3516 17.2903V0.233969ZM146.832 0.233969H150.162H150.197H151.361H164.912V5.20734H154.79C154.409 5.20734 154 5.29492 153.766 5.50013C153.444 5.76328 153.444 6.23121 153.444 6.4948V8.04498H164.62V12.492H153.444V14.7153C153.444 15.1545 153.59 15.3593 153.737 15.476C154.058 15.798 154.556 15.7397 154.994 15.7397H165V20.713H150.255C149.407 20.713 148.558 20.6838 147.768 20.0107C146.832 19.2208 146.832 18.4017 146.832 17.4362V5.17947V3.39357V3.35654V0.233969ZM136.605 20.713V5.32453H143.919V0.233969H122.68V5.32453H129.993V20.713H136.605ZM119.8 20.713V0.233969H113.188V20.713H119.8ZM94.5816 20.713H106.02C107.424 20.713 108.975 20.6838 110.145 19.1332C111.081 17.8754 111.14 16.266 111.14 15.0665C111.14 13.6623 111.023 11.6729 109.735 10.3855C109.004 9.6544 107.805 9.18604 106.898 8.95208L99.9933 7.10911C99.2034 6.90433 98.2671 6.66995 98.2671 5.99725C98.2671 5.7341 98.3843 5.5585 98.5891 5.4413C98.7058 5.35373 98.8814 5.32453 99.6713 5.32453H110.086V0.233969H96.5701C94.8147 0.233969 93.7324 0.84829 93.0597 1.52099C91.8599 2.72044 91.7723 4.32986 91.7723 5.61688C91.7723 7.1383 91.9187 8.89368 92.8842 10.1807C93.3229 10.7366 94.0248 11.4098 95.2247 11.7313L103.153 13.9551C103.826 14.1599 104.47 14.3058 104.47 14.9789C104.47 15.3005 104.294 15.6225 103.328 15.6225H92.4655L94.5816 20.713ZM67.2562 20.713H74.2189L75.8279 16.5004H83.2006L84.8096 20.713H91.7723L84.1953 2.48648C83.259 0.204787 81.4452 0 79.5142 0C76.3546 0 75.4767 0.965061 74.8332 2.48648L67.2562 20.713ZM79.2511 6.64074C79.3387 6.49479 79.4267 6.20201 79.5142 6.20201C79.6018 6.20201 79.6898 6.49479 79.7774 6.64074L81.6208 11.8193H77.4077L79.2511 6.64074ZM55.0216 0.233969H47.9417L50.0121 5.30319H56.7718L55.0216 0.233969ZM36.3917 0C33.2904 0 29.6333 0.0875875 27.4391 2.10613C25.1866 4.1251 25.1278 7.75263 25.1278 10.4735C25.1278 13.1944 25.1866 16.7635 27.4391 18.8404C29.6333 20.8594 33.3196 20.947 36.3917 20.947C39.4632 20.947 43.1496 20.8594 45.3437 18.8404C47.5383 16.7051 47.655 13.2236 47.655 10.4735C47.655 7.72343 47.5675 4.15429 45.3437 2.10613C43.1496 0.0875875 39.4929 0 36.3917 0ZM31.9154 10.4735C31.9154 8.7473 31.9446 7.66505 32.6761 6.58237C33.5244 5.26572 34.7238 5.09014 36.3917 5.09014C38.1178 5.09014 39.2001 5.26572 40.1072 6.58237C40.8971 7.75262 40.8679 8.68892 40.8679 10.4735C40.8679 12.1117 40.8383 13.2819 40.1072 14.3646C39.1417 15.7105 38.147 15.8564 36.3917 15.8564C34.7238 15.8564 33.5536 15.7105 32.6761 14.3646C32.003 13.3403 31.9154 12.1117 31.9154 10.4735Z" fill="black"/>
<path d="M51.4621 8.85352L55.0509 17.6409C55.7528 19.4255 56.9522 20.9469 60.1998 20.9469C63.4178 20.9469 64.6469 19.4551 65.3488 17.6409L72.4579 0.233887H65.378L60.5802 14.1301C60.463 14.4813 60.2874 14.5693 60.1998 14.5693C60.1122 14.5693 59.9367 14.4813 59.8195 14.1301L57.9978 8.85352H51.4621Z" fill="#02917A"/>
</svg>
